# xmcd
#
# Track frame offsets: 
#        150
#        14453
#        31188
#        46569
#        62903
#        82074
#        96322
#        110911
#        128556
#        142684
#        157519
#        173781
#        188213
#        202978
#        219734
#        237888
#
# Disc length: 3408 seconds
#
# Revision: 0
# Processed by: cddbd v1.5.2PL0 Copyright (c) Steve Scherf et al.
# Submitted via: ExactAudioCopyFreeDBPlugin 1.0
#
DISCID=ce0d4e10
DTITLE=Mister Dex - Złota kolekcja
DYEAR=2001
DGENRE=A Cappella
TTITLE0=Mister Dex - TV MIX 2001
TTITLE1=Dwie tęsknoty
TTITLE2=Moja Mona Lisa
TTITLE3=Niekochane kobiety
TTITLE4=Kopciuszek
TTITLE5=Tyle miłości
TTITLE6=Kochaj, całuj
TTITLE7=Naprawdę jaka jesteś
TTITLE8=Podarunki
TTITLE9=Sto buziaków
TTITLE10=Szmaragdowa pogoda
TTITLE11=Ech życie, życie
TTITLE12=Szmer
TTITLE13=Malowana lala
TTITLE14=Kśiężniczka
TTITLE15=Motyle
EXTD=
EXTT0=
EXTT1=
EXTT2=
EXTT3=
EXTT4=
EXTT5=
EXTT6=
EXTT7=
EXTT8=
EXTT9=
EXTT10=
EXTT11=
EXTT12=
EXTT13=
EXTT14=
EXTT15=
PLAYORDER=
